<?xml version="1.0" encoding="utf-8" ?>	<!-- Generator: Assembly 1.8 - http://assemblyapp.co -->	<svg version="1.1" xmlns="http://www.w3.org/2000/svg" xmlns:xlink="http://www.w3.org/1999/xlink" width="2048.00" height="1365.33" viewBox="0 0 2048.0 1365.3333333333335">		<rect x="0" y="0" width="2048.00" height="1365.33" fill="#ffffff" />		<g id="document" transform="matrix(1,0,0,1,1024.0,682.6666666666667)">			<path d="M680.155,67.866 C660.799,66.4143 645.073,75.3179 645.073,93.5123 L645.073,222.107 C645.073,272.093 618.628,305.336 539.342,305.336 L539.342,250.898 C566.827,251.769 577.328,234.93 577.328,203.477 L577.328,87.5846 C577.328,63.269 595.546,47.0828 623.298,42.0987 C595.546,38.8082 576.844,25.3076 576.844,-4.83893 L576.844,-92.4235 C576.844,-136.458 564.239,-146.62 539.342,-146.62 L539.342,-203.719 C611.95,-203.719 644.589,-166.556 644.589,-113.715 L644.589,-8.83104 C644.589,12.3877 664.187,15.3636 680.155,16.8153 L680.155,67.866 Z " fill="#bc579b" fill-opacity="1.00" />			<path d="M-680.155,67.866 C-660.799,66.4143 -645.073,75.3179 -645.073,93.5123 L-645.073,222.107 C-645.073,272.093 -618.628,305.336 -539.342,305.336 L-539.342,250.898 C-566.827,251.769 -577.328,234.93 -577.328,203.477 L-577.328,87.5846 C-577.328,63.269 -595.546,47.0828 -623.298,42.0987 C-595.546,38.8082 -576.844,25.3076 -576.844,-4.83893 L-576.844,-92.4235 C-576.844,-136.458 -564.239,-146.62 -539.342,-146.62 L-539.342,-203.719 C-611.95,-203.719 -644.589,-166.556 -644.589,-113.715 L-644.589,-8.83104 C-644.589,12.3877 -664.187,15.3636 -680.155,16.8153 L-680.155,67.866 Z " fill="#bc579b" fill-opacity="1.00" />			<path d="M275.084,212.522 C280.438,107.308 282.717,131.391 279.107,106.02 C275.498,80.6483 249.822,73.6789 231.613,73.6789 C193.554,73.6789 151.69,104.126 151.69,162.844 C151.69,184.617 157.431,202.171 167.335,215.931 C73.5019,271.683 -79.6631,343.992 -192.104,434.307 C-231.942,446.713 -274.817,459.825 -293.598,445.541 C-312.378,431.257 -261.271,430.814 -246.028,434.307 C-46.4025,480.053 244.345,610.568 365.628,559.984 C404.38,543.821 423.143,354.178 299.309,370.134 C175.475,386.091 -187.333,618.399 -224.355,619.103 C-261.377,619.807 -273.371,572.366 -260.395,559.984 C-195.563,498.119 182.766,680.59 218.74,687.836 C223.124,688.719 225.955,693.311 209.647,676.673 C191.656,658.318 -126.401,539.495 -183.035,526.518 C-239.668,513.541 -290.356,517.937 -299.61,559.984 C-308.865,602.032 -300.947,659.501 -224.355,659.501 C-147.763,659.501 231.519,424.255 299.309,419.846 C367.099,415.438 358.071,506.278 320.745,516.819 C188.309,554.219 -145.5,382.604 -217.855,382.604 C-296.552,382.604 -380.8,403.837 -380.8,453.6 C-380.8,485.419 -314.465,502.071 -277.373,502.071 C-150.503,502.071 3.06681,322.286 231.511,253.999 C232.13,253.814 232.742,253.622 233.348,253.422 C244.049,255.407 255.349,256.359 266.953,256.359 C345.788,256.359 419.73,211.777 419.73,120.436 C419.73,2.99885 297.4,-7.87499 297.4,-87.7978 C297.4,-120.419 317.516,-137.274 347.419,-137.274 C377.322,-137.274 387.653,-119.876 387.653,-100.846 C387.653,-82.9045 377.866,-62.7879 363.186,-54.0888 C370.254,-45.9335 378.41,-42.6713 388.196,-42.6713 C415.381,-42.6713 432.779,-66.0501 432.779,-97.5842 C432.779,-157.39 370.798,-162.827 345.245,-162.827 C275.108,-162.827 219.652,-122.05 219.652,-65.5064 C219.652,14.4164 331.109,47.5816 331.109,140.553 C331.109,183.225 307.851,209.284 275.084,212.522 L275.084,212.522 Z M252.631,116.631 C264.295,131.781 262.555,141.634 244.968,160.67 C227.382,179.705 223.954,178.152 219.565,181.539 C217.085,175.027 215.846,167.926 215.846,160.67 C215.846,124.765 240.967,101.48 252.631,116.631 Z M-171.263,147.077 C-196.273,180.786 -234.875,201.447 -277.283,201.447 C-329.478,201.447 -342.526,166.65 -342.526,116.631 C-342.526,5.71732 -289.244,-137.274 -229.438,-137.274 C-204.972,-137.274 -196.273,-121.507 -196.273,-104.109 C-196.273,-83.4482 -208.234,-60.6131 -221.283,-54.0888 C-210.953,-42.1276 -198.991,-39.9528 -190.292,-39.9528 C-162.564,-39.9528 -152.234,-61.1568 -152.234,-89.9725 C-152.234,-142.711 -191.923,-162.827 -243.03,-162.827 C-385.478,-162.827 -432.779,21.4844 -432.779,119.893 C-432.779,217.757 -394.177,253.641 -313.71,253.641 C-264.234,253.641 -187.574,225.369 -158.758,152.514 L-171.263,147.077 Z M122.874,-97.5842 C122.874,-157.39 60.8935,-162.827 35.34,-162.827 C-34.7963,-162.827 -90.2529,-122.05 -90.2529,-65.5064 C-90.2529,14.4164 21.204,47.5816 21.204,140.553 C21.204,186.223 -5.43692,212.864 -41.8643,212.864 C-76.6606,212.864 -94.0588,187.854 -94.0588,160.67 C-94.0588,123.155 -59.8062,109.563 -30.4468,109.563 C-32.0778,81.2905 -59.2625,73.6789 -78.2917,73.6789 C-116.35,73.6789 -158.214,104.126 -158.214,162.844 C-158.214,229.175 -104.933,256.359 -42.9517,256.359 C35.8837,256.359 109.826,211.777 109.826,120.436 C109.826,2.99885 -12.5049,-7.87499 -12.5049,-87.7978 C-12.5049,-120.419 7.61169,-137.274 37.5148,-137.274 C67.4178,-137.274 77.748,-119.876 77.748,-100.846 C77.748,-82.9045 67.9615,-62.7879 53.2818,-54.0888 C60.3498,-45.9335 68.5052,-42.6713 78.2917,-42.6713 C105.476,-42.6713 122.874,-66.0501 122.874,-97.5842 Z " fill="#7f0b58" fill-opacity="1.00" />			<path d="M-371.547,-332.852 C-311.111,-332.852 -261.545,-382.853 -261.545,-444.159 C-261.545,-505.899 -311.111,-555.466 -371.547,-555.466 C-392.417,-555.466 -406.765,-570.249 -406.765,-591.119 C-406.765,-612.423 -392.417,-626.772 -371.547,-626.772 C-362.851,-626.772 -354.59,-623.728 -348.068,-618.511 C-364.156,-620.25 -378.069,-607.206 -378.069,-591.119 C-378.069,-576.336 -365.895,-563.727 -351.112,-563.727 C-335.894,-563.727 -323.72,-576.336 -323.72,-591.119 C-323.72,-621.119 -342.851,-639.815 -371.547,-639.815 C-399.809,-639.815 -419.374,-620.25 -419.374,-591.119 C-419.374,-562.422 -399.374,-543.292 -371.547,-542.857 C-338.068,-542.422 -315.894,-520.682 -315.894,-486.334 L-315.894,-402.419 C-315.894,-371.114 -340.677,-345.896 -371.547,-345.896 C-421.983,-345.896 -454.593,-373.288 -465.462,-419.376 C-447.636,-411.115 -427.635,-424.593 -427.635,-444.159 C-427.635,-459.377 -439.81,-471.551 -454.593,-471.551 C-469.375,-471.551 -481.55,-459.377 -481.55,-444.159 C-481.55,-378.94 -438.94,-332.852 -371.547,-332.852 Z M-68.0623,-500.682 L-68.0623,-513.726 L-148.934,-513.726 L-148.934,-639.815 L-241.979,-639.815 L-241.979,-626.772 L-201.978,-626.772 L-201.978,-513.726 L-241.979,-513.726 L-241.979,-500.682 L-201.978,-500.682 L-201.978,-345.896 L-241.979,-345.896 L-241.979,-332.852 L-108.933,-332.852 L-108.933,-345.896 L-148.934,-345.896 L-148.934,-500.682 L-68.0623,-500.682 Z M206.292,-496.334 L206.292,-509.378 L112.811,-509.378 L112.811,-496.334 L149.334,-496.334 L97.1587,-391.549 L44.9836,-496.334 L81.5062,-496.334 L81.5062,-509.378 L-53.7142,-509.378 L-53.7142,-496.334 L-11.1046,-496.334 L69.332,-335.026 L28.8963,-254.59 C20.6353,-238.067 1.06963,-216.328 -15.8873,-216.328 C-24.5831,-216.328 -31.105,-219.806 -35.4529,-225.893 C-18.496,-220.676 -0.669541,-233.72 -0.669541,-251.981 C-0.669541,-266.764 -12.8437,-279.373 -27.6267,-279.373 C-42.8444,-279.373 -55.0186,-266.764 -55.0186,-251.981 C-55.0186,-228.937 -45.4531,-203.719 -15.8873,-203.719 C8.89589,-203.719 31.0703,-230.676 40.2009,-248.937 L163.682,-496.334 L206.292,-496.334 Z M349.773,-332.852 L349.773,-345.461 L310.642,-345.461 L310.642,-639.381 L219.335,-639.815 L219.335,-626.772 L258.467,-626.772 L258.467,-345.461 L219.335,-345.461 L219.335,-332.852 L349.773,-332.852 Z M485.863,-427.202 L416.296,-427.202 C416.731,-438.507 416.296,-451.985 416.296,-461.985 C416.731,-482.421 430.644,-496.769 451.079,-496.769 C471.08,-496.769 485.863,-481.986 485.863,-461.985 L485.863,-427.202 Z M469.776,-348.505 C463.688,-346.331 456.732,-345.461 451.079,-345.461 C431.949,-345.461 416.296,-361.114 416.296,-380.244 L416.296,-414.593 L539.342,-414.593 C538.908,-465.464 504.994,-508.943 451.079,-508.943 C402.818,-508.943 362.817,-469.377 362.817,-421.115 C362.817,-370.679 400.644,-332.852 451.079,-332.852 C468.036,-332.852 498.037,-339.809 498.037,-366.331 C498.037,-377.201 489.341,-386.332 478.471,-386.332 C467.167,-386.332 458.471,-377.201 458.471,-366.331 C458.471,-358.505 462.819,-351.548 469.776,-348.505 Z " fill="#a63171" fill-opacity="1.00" />			<path d="M-857.125,618.676 C-857.125,579.792 -888.647,548.27 -927.531,548.27 C-966.416,548.27 -997.938,579.792 -997.938,618.676 C-997.938,657.56 -966.416,689.082 -927.531,689.082 C-888.647,689.082 -857.125,657.56 -857.125,618.676 Z " fill="#e9b7e0" fill-opacity="1.00" />			<path d="M-432.779,514.245 C-432.779,417.685 -511.056,339.408 -607.616,339.408 C-704.176,339.408 -782.454,417.685 -782.454,514.245 C-782.454,610.805 -704.176,689.082 -607.616,689.082 C-511.056,689.082 -432.779,610.805 -432.779,514.245 Z " fill="#e9b7e0" fill-opacity="1.00" />			<path d="M-857.125,192.721 C-857.125,153.837 -888.647,122.315 -927.531,122.315 C-966.416,122.315 -997.938,153.837 -997.938,192.721 C-997.938,231.606 -966.416,263.128 -927.531,263.128 C-888.647,263.128 -857.125,231.606 -857.125,192.721 Z " fill="#e9b7e0" fill-opacity="1.00" />			<path d="M-788.712,-170.222 C-814.224,-263.326 -910.381,-318.12 -1003.48,-292.608 C-1096.59,-267.095 -1151.38,-170.938 -1125.87,-77.8348 C-1100.36,15.2688 -1004.2,70.0625 -911.097,44.5503 C-817.994,19.0382 -763.2,-77.1188 -788.712,-170.222 Z " fill="#e9b7e0" fill-opacity="1.00" />			<path d="M-595.562,-429.554 C-556.859,-496.591 -579.827,-582.311 -646.864,-621.014 C-713.9,-659.718 -799.62,-636.75 -838.324,-569.713 C-877.027,-502.676 -854.059,-416.956 -787.022,-378.253 C-719.985,-339.549 -634.266,-362.518 -595.562,-429.554 Z " fill="#e9b7e0" fill-opacity="1.00" />			<path d="M70.4064,-648.985 C70.4064,-687.87 38.8844,-719.392 0,-719.392 C-38.8844,-719.392 -70.4064,-687.87 -70.4064,-648.985 C-70.4064,-610.101 -38.8844,-578.579 0,-578.579 C38.8844,-578.579 70.4064,-610.101 70.4064,-648.985 Z " fill="#e9b7e0" fill-opacity="1.00" />			<path d="M743.442,-648.985 C743.442,-722.822 683.585,-782.678 609.749,-782.678 C535.912,-782.678 476.056,-722.822 476.056,-648.985 C476.056,-575.149 535.912,-515.292 609.749,-515.292 C683.585,-515.292 743.442,-575.149 743.442,-648.985 Z " fill="#e9b7e0" fill-opacity="1.00" />			<path d="M948.092,-620.896 C928.653,-654.565 885.6,-666.101 851.931,-646.662 C818.262,-627.223 806.726,-584.171 826.165,-550.501 C845.604,-516.832 888.656,-505.296 922.326,-524.735 C955.995,-544.174 967.531,-587.227 948.092,-620.896 Z " fill="#e9b7e0" fill-opacity="1.00" />			<path d="M776.536,-413.223 C754.342,-413.223 736.351,-395.232 736.351,-373.038 C736.351,-350.844 754.342,-332.852 776.536,-332.852 C798.73,-332.852 816.722,-350.844 816.722,-373.038 C816.722,-395.232 798.73,-413.223 776.536,-413.223 Z " fill="#e9b7e0" fill-opacity="1.00" />			<path d="M1087.01,-192.294 C1036.07,-258.239 941.324,-270.409 875.378,-219.476 C809.433,-168.542 797.264,-73.7932 848.197,-7.84796 C899.131,58.0973 993.88,70.2668 1059.82,19.3333 C1125.77,-31.6001 1137.94,-126.349 1087.01,-192.294 Z " fill="#e9b7e0" fill-opacity="1.00" />			<path d="M676.584,518.545 C612.65,481.633 530.899,503.538 493.987,567.472 C457.074,631.405 478.98,713.157 542.913,750.069 C606.847,786.981 688.599,765.076 725.511,701.142 C762.423,637.209 740.518,555.457 676.584,518.545 Z " fill="#e9b7e0" fill-opacity="1.00" />			<path d="M1157.98,173.55 C1048.67,85.1787 888.41,102.156 800.039,211.47 C711.667,320.784 728.644,481.04 837.958,569.411 C947.272,657.783 1107.53,640.806 1195.9,531.492 C1284.27,422.178 1267.29,261.922 1157.98,173.55 Z " fill="#e9b7e0" fill-opacity="1.00" />		</g>	</svg>